<svg width="29" height="30" viewBox="0 0 29 30" fill="none" xmlns="http://www.w3.org/2000/svg">
<path fill-rule="evenodd" clip-rule="evenodd" d="M3.50083 19.7871V19.5681C3.53295 18.9202 3.7406 18.2925 4.10236 17.7496C4.7045 17.0975 5.1167 16.2983 5.29571 15.436C5.29571 14.7695 5.29571 14.0935 5.35393 13.427C5.65469 10.2184 8.82728 8 11.9611 8H12.0387C15.1725 8 18.345 10.2184 18.6555 13.427C18.7137 14.0935 18.6555 14.7695 18.704 15.436C18.8854 16.3003 19.2972 17.1019 19.8974 17.7591C20.2618 18.2972 20.4698 18.9227 20.4989 19.5681V19.7776C20.5206 20.648 20.2208 21.4968 19.6548 22.1674C18.907 22.9515 17.8921 23.4393 16.8024 23.5384C13.607 23.8812 10.383 23.8812 7.18762 23.5384C6.09914 23.435 5.08576 22.9479 4.33521 22.1674C3.778 21.4963 3.48224 20.6526 3.50083 19.7871Z" fill="url(#paint0_linear_1_19722)" stroke="url(#paint1_linear_1_19722)" stroke-width="1.5" stroke-linecap="round" stroke-linejoin="round"/>
<path d="M9.55518 26.8516C10.0545 27.4782 10.7876 27.8838 11.5925 27.9785C12.3973 28.0732 13.2074 27.8493 13.8435 27.3562C14.0391 27.2103 14.2152 27.0408 14.3674 26.8516" stroke="url(#paint2_linear_1_19722)" stroke-width="1.5" stroke-linecap="round" stroke-linejoin="round"/>
<circle cx="21" cy="8" r="7.25" fill="#EB5757" stroke="white" stroke-width="1.5"/>
<path d="M22.1339 9.75H23.6539V11H19.0539V9.75H20.5739V5.68L19.3739 6.38L18.7839 5.26L21.0239 3.95H22.1339V9.75Z" fill="white"/>
<defs>
<linearGradient id="paint0_linear_1_19722" x1="20.5" y1="23.7955" x2="3.22384" y2="23.4875" gradientUnits="userSpaceOnUse">
<stop stop-color="#888BF4"/>
<stop offset="1" stop-color="#5151C6"/>
</linearGradient>
<linearGradient id="paint1_linear_1_19722" x1="20.5" y1="23.7955" x2="3.22384" y2="23.4875" gradientUnits="userSpaceOnUse">
<stop stop-color="#888BF4"/>
<stop offset="1" stop-color="#5151C6"/>
</linearGradient>
<linearGradient id="paint2_linear_1_19722" x1="14.3674" y1="27.9998" x2="9.49892" y2="27.6617" gradientUnits="userSpaceOnUse">
<stop stop-color="#888BF4"/>
<stop offset="1" stop-color="#5151C6"/>
</linearGradient>
</defs>
</svg>
