<svg width="28" height="28" viewBox="0 0 28 28" fill="none" xmlns="http://www.w3.org/2000/svg">
<rect width="28" height="28" rx="6" fill="url(#paint0_linear_1_19311)"/>
<path fill-rule="evenodd" clip-rule="evenodd" d="M18.6982 9.92479V9.92479C18.3873 9.92479 18.1057 9.74563 17.9732 9.46563C17.734 8.95896 17.4298 8.31146 17.2498 7.95896C16.984 7.43479 16.5532 7.12979 15.9565 7.12563C15.9465 7.12479 12.0532 7.12479 12.0432 7.12563C11.4465 7.12979 11.0165 7.43479 10.7498 7.95896C10.5707 8.31146 10.2665 8.95896 10.0273 9.46563C9.89484 9.74563 9.61234 9.92479 9.30234 9.92479V9.92479C7.639 9.92479 6.2915 11.2723 6.2915 12.9348V17.8815C6.2915 19.5431 7.639 20.8915 9.30234 20.8915H18.6982C20.3607 20.8915 21.7082 19.5431 21.7082 17.8815V12.9348C21.7082 11.2723 20.3607 9.92479 18.6982 9.92479Z" stroke="#ECEDEE" stroke-width="1.5" stroke-linecap="round" stroke-linejoin="round"/>
<path fill-rule="evenodd" clip-rule="evenodd" d="M11.3512 15.1121C11.3503 16.5729 12.5428 17.7679 14.0012 17.7671C15.457 17.7654 16.6462 16.5754 16.6487 15.118C16.6512 13.6546 15.4628 12.4621 14.0028 12.4605C12.5345 12.4588 11.3395 13.6713 11.3512 15.1121Z" stroke="#ECEDEE" stroke-width="1.5" stroke-linecap="round" stroke-linejoin="round"/>
<path d="M18.0856 13.1626C18.0051 13.1543 17.9256 13.1333 17.8365 13.0975C17.7374 13.0534 17.6517 12.9975 17.5687 12.9132C17.4198 12.7547 17.3335 12.5475 17.3335 12.3337C17.3335 12.2202 17.3567 12.1076 17.4021 12.0057C17.4475 11.9024 17.5013 11.8152 17.5986 11.7205C17.6727 11.656 17.7485 11.6041 17.8522 11.5584C18.1596 11.4366 18.5252 11.5094 18.7538 11.7378C18.8223 11.8053 18.8799 11.8868 18.912 11.9554L18.9309 12.0041C18.9769 12.1076 19.0002 12.2202 19.0002 12.3337C19.0002 12.5518 18.915 12.7536 18.7569 12.9215C18.6203 13.059 18.4409 13.1436 18.2495 13.1626L18.1668 13.1667L18.0856 13.1626Z" fill="#ECEDEE"/>
<defs>
<linearGradient id="paint0_linear_1_19311" x1="28" y1="28" x2="-0.456083" y2="27.5286" gradientUnits="userSpaceOnUse">
<stop stop-color="#888BF4"/>
<stop offset="1" stop-color="#5151C6"/>
</linearGradient>
</defs>
</svg>
