<svg width="20" height="21" viewBox="0 0 20 21" fill="none" xmlns="http://www.w3.org/2000/svg">
<path fill-rule="evenodd" clip-rule="evenodd" d="M6.41326 11.6589C5.87596 11.6589 5.43945 11.2224 5.43945 10.6851C5.43945 10.1494 5.87596 9.71289 6.41326 9.71289C6.95056 9.71289 7.38707 10.1494 7.38707 10.6851C7.38707 11.2224 6.95056 11.6589 6.41326 11.6589ZM10.199 11.6589C9.66166 11.6589 9.22515 11.2224 9.22515 10.6851C9.22515 10.1494 9.66166 9.71289 10.199 9.71289C10.7363 9.71289 11.1728 10.1494 11.1728 10.6851C11.1728 11.2224 10.7363 11.6589 10.199 11.6589ZM13.011 10.6851C13.011 11.2224 13.4475 11.6589 13.9848 11.6589C14.5221 11.6589 14.9586 11.2224 14.9586 10.6851C14.9586 10.1494 14.5221 9.71289 13.9848 9.71289C13.4475 9.71289 13.011 10.1494 13.011 10.6851Z" fill="url(#paint0_linear_72_1597)"/>
<path fill-rule="evenodd" clip-rule="evenodd" d="M10.017 2.1665C5.17533 2.1665 1.66699 6.1216 1.66699 10.5124C1.66699 11.9145 2.07533 13.3575 2.79199 14.6761C2.92533 14.8939 2.94199 15.1685 2.85033 15.4281L2.29199 17.2975C2.16699 17.7482 2.55033 18.0812 2.97533 17.9477L4.65866 17.4478C5.11699 17.2975 5.47533 17.4887 5.90033 17.7482C7.11699 18.4651 8.63366 18.8332 10.0003 18.8332C14.1337 18.8332 18.3337 15.6367 18.3337 10.4873C18.3337 6.04649 14.7503 2.1665 10.017 2.1665Z" stroke="url(#paint1_linear_72_1597)" stroke-width="1.5" stroke-linecap="round" stroke-linejoin="round"/>
<defs>
<linearGradient id="paint0_linear_72_1597" x1="14.9586" y1="11.6589" x2="5.34488" y2="10.8798" gradientUnits="userSpaceOnUse">
<stop stop-color="#888BF4"/>
<stop offset="1" stop-color="#5151C6"/>
</linearGradient>
<linearGradient id="paint1_linear_72_1597" x1="18.3337" y1="18.8332" x2="1.39551" y2="18.5525" gradientUnits="userSpaceOnUse">
<stop stop-color="#888BF4"/>
<stop offset="1" stop-color="#5151C6"/>
</linearGradient>
</defs>
</svg>
