<svg width="20" height="21" viewBox="0 0 20 21" fill="none" xmlns="http://www.w3.org/2000/svg">
<path fill-rule="evenodd" clip-rule="evenodd" d="M9.77512 4.41594C14.7551 4.26011 17.6918 8.90511 18.2234 9.83177C18.3701 10.0884 18.3701 10.4043 18.2234 10.6609C17.5118 11.9018 14.8318 15.9593 10.226 16.0768C10.1576 16.0784 10.0893 16.0793 10.021 16.0793C5.13512 16.0793 2.30178 11.5751 1.77762 10.6609C1.63012 10.4043 1.63012 10.0884 1.77762 9.83177C2.48928 8.59094 5.16845 4.53261 9.77512 4.41594ZM10.1835 14.4109C6.59512 14.4943 4.25428 11.4251 3.47762 10.2426C4.33262 8.90511 6.48595 6.16677 9.81762 6.08177C13.3918 5.99094 15.746 9.06761 16.5226 10.2501C15.6685 11.5876 13.5143 14.3259 10.1835 14.4109ZM7.0837 10.2463C7.0837 8.63794 8.39203 7.32961 10.0004 7.32961C11.6087 7.32961 12.917 8.63794 12.917 10.2463C12.917 11.8546 11.6087 13.1629 10.0004 13.1629C8.39203 13.1629 7.0837 11.8546 7.0837 10.2463ZM8.75037 10.2463C8.75037 10.9354 9.3112 11.4963 10.0004 11.4963C10.6895 11.4963 11.2504 10.9354 11.2504 10.2463C11.2504 9.55711 10.6895 8.99627 10.0004 8.99627C9.3112 8.99627 8.75037 9.55711 8.75037 10.2463Z" fill="url(#paint0_linear_78_1392)"/>
<mask id="mask0_78_1392" style="mask-type:luminance" maskUnits="userSpaceOnUse" x="1" y="4" width="18" height="13">
<path fill-rule="evenodd" clip-rule="evenodd" d="M9.77512 4.41594C14.7551 4.26011 17.6918 8.90511 18.2234 9.83177C18.3701 10.0884 18.3701 10.4043 18.2234 10.6609C17.5118 11.9018 14.8318 15.9593 10.226 16.0768C10.1576 16.0784 10.0893 16.0793 10.021 16.0793C5.13512 16.0793 2.30178 11.5751 1.77762 10.6609C1.63012 10.4043 1.63012 10.0884 1.77762 9.83177C2.48928 8.59094 5.16845 4.53261 9.77512 4.41594ZM10.1835 14.4109C6.59512 14.4943 4.25428 11.4251 3.47762 10.2426C4.33262 8.90511 6.48595 6.16677 9.81762 6.08177C13.3918 5.99094 15.746 9.06761 16.5226 10.2501C15.6685 11.5876 13.5143 14.3259 10.1835 14.4109ZM7.0837 10.2463C7.0837 8.63794 8.39203 7.32961 10.0004 7.32961C11.6087 7.32961 12.917 8.63794 12.917 10.2463C12.917 11.8546 11.6087 13.1629 10.0004 13.1629C8.39203 13.1629 7.0837 11.8546 7.0837 10.2463ZM8.75037 10.2463C8.75037 10.9354 9.3112 11.4963 10.0004 11.4963C10.6895 11.4963 11.2504 10.9354 11.2504 10.2463C11.2504 9.55711 10.6895 8.99627 10.0004 8.99627C9.3112 8.99627 8.75037 9.55711 8.75037 10.2463Z" fill="white"/>
</mask>
<g mask="url(#mask0_78_1392)">
</g>
<defs>
<linearGradient id="paint0_linear_78_1392" x1="18.3335" y1="16.0793" x2="1.40035" y2="15.6785" gradientUnits="userSpaceOnUse">
<stop stop-color="#888BF4"/>
<stop offset="1" stop-color="#5151C6"/>
</linearGradient>
</defs>
</svg>
