<svg width="24" height="24" viewBox="0 0 24 24" fill="none" xmlns="http://www.w3.org/2000/svg">
<path d="M20.1199 5.08534C19.6508 4.61447 19.0937 4.24095 18.4807 3.98611C17.8676 3.73127 17.2105 3.6001 16.5468 3.6001C15.8832 3.6001 15.2261 3.73127 14.613 3.98611C13.9999 4.24095 13.4429 4.61447 12.9738 5.08534L12.0001 6.06209L11.0265 5.08534C10.0789 4.13467 8.79361 3.60059 7.45345 3.60059C6.1133 3.60059 4.82803 4.13467 3.8804 5.08534C2.93277 6.03601 2.40039 7.32539 2.40039 8.66984C2.40039 10.0143 2.93277 11.3037 3.8804 12.2543L4.85403 13.2311L12.0001 20.4001L19.1463 13.2311L20.1199 12.2543C20.5893 11.7837 20.9616 11.2249 21.2156 10.6099C21.4696 9.99481 21.6004 9.33559 21.6004 8.66984C21.6004 8.00409 21.4696 7.34487 21.2156 6.72983C20.9616 6.11479 20.5893 5.55598 20.1199 5.08534V5.08534Z" stroke="#242424" stroke-width="1.5" stroke-linecap="round" stroke-linejoin="round"/>
</svg>
