<svg width="50" height="32" viewBox="0 0 50 32" fill="none" xmlns="http://www.w3.org/2000/svg">
<rect width="50" height="32" rx="16" fill="url(#paint0_linear_90_1116)"/>
<path d="M18.0333 13.168C18.0333 13.6627 17.9166 14.1293 17.6833 14.568C17.45 15.0067 17.0766 15.366 16.5633 15.646C16.05 15.9167 15.392 16.052 14.5893 16.052H12.8253V20H11.2293V10.27H14.5893C15.336 10.27 15.966 10.4007 16.4793 10.662C17.002 10.914 17.3893 11.2593 17.6413 11.698C17.9026 12.1367 18.0333 12.6267 18.0333 13.168ZM14.5893 14.75C15.196 14.75 15.6486 14.6147 15.9473 14.344C16.246 14.064 16.3953 13.672 16.3953 13.168C16.3953 12.104 15.7933 11.572 14.5893 11.572H12.8253V14.75H14.5893ZM22.8015 20.126C22.0735 20.126 21.4155 19.9627 20.8275 19.636C20.2395 19.3 19.7775 18.8333 19.4415 18.236C19.1055 17.6293 18.9375 16.9293 18.9375 16.136C18.9375 15.352 19.1101 14.6567 19.4555 14.05C19.8008 13.4433 20.2721 12.9767 20.8695 12.65C21.4668 12.3233 22.1341 12.16 22.8715 12.16C23.6088 12.16 24.2761 12.3233 24.8735 12.65C25.4708 12.9767 25.9421 13.4433 26.2875 14.05C26.6328 14.6567 26.8055 15.352 26.8055 16.136C26.8055 16.92 26.6281 17.6153 26.2735 18.222C25.9188 18.8287 25.4335 19.3 24.8175 19.636C24.2108 19.9627 23.5388 20.126 22.8015 20.126ZM22.8015 18.74C23.2121 18.74 23.5948 18.642 23.9495 18.446C24.3135 18.25 24.6075 17.956 24.8315 17.564C25.0555 17.172 25.1675 16.696 25.1675 16.136C25.1675 15.576 25.0601 15.1047 24.8455 14.722C24.6308 14.33 24.3461 14.036 23.9915 13.84C23.6368 13.644 23.2541 13.546 22.8435 13.546C22.4328 13.546 22.0501 13.644 21.6955 13.84C21.3501 14.036 21.0748 14.33 20.8695 14.722C20.6641 15.1047 20.5615 15.576 20.5615 16.136C20.5615 16.9667 20.7715 17.6107 21.1915 18.068C21.6208 18.516 22.1575 18.74 22.8015 18.74ZM31.0832 20.126C30.4765 20.126 29.9305 20.0187 29.4452 19.804C28.9692 19.58 28.5912 19.2813 28.3112 18.908C28.0312 18.5253 27.8819 18.1007 27.8632 17.634H29.5152C29.5432 17.9607 29.6972 18.236 29.9772 18.46C30.2665 18.6747 30.6259 18.782 31.0552 18.782C31.5032 18.782 31.8485 18.698 32.0912 18.53C32.3432 18.3527 32.4692 18.1287 32.4692 17.858C32.4692 17.5687 32.3292 17.354 32.0492 17.214C31.7785 17.074 31.3445 16.92 30.7472 16.752C30.1685 16.5933 29.6972 16.4393 29.3332 16.29C28.9692 16.1407 28.6519 15.912 28.3812 15.604C28.1199 15.296 27.9892 14.89 27.9892 14.386C27.9892 13.9753 28.1105 13.602 28.3532 13.266C28.5959 12.9207 28.9412 12.65 29.3892 12.454C29.8465 12.258 30.3692 12.16 30.9572 12.16C31.8345 12.16 32.5392 12.384 33.0712 12.832C33.6125 13.2707 33.9019 13.8727 33.9392 14.638H32.3432C32.3152 14.2927 32.1752 14.0173 31.9232 13.812C31.6712 13.6067 31.3305 13.504 30.9012 13.504C30.4812 13.504 30.1592 13.5833 29.9352 13.742C29.7112 13.9007 29.5992 14.1107 29.5992 14.372C29.5992 14.5773 29.6739 14.75 29.8232 14.89C29.9725 15.03 30.1545 15.142 30.3692 15.226C30.5839 15.3007 30.9012 15.3987 31.3212 15.52C31.8812 15.6693 32.3385 15.8233 32.6932 15.982C33.0572 16.1313 33.3699 16.3553 33.6312 16.654C33.8925 16.9527 34.0279 17.3493 34.0372 17.844C34.0372 18.2827 33.9159 18.6747 33.6732 19.02C33.4305 19.3653 33.0852 19.636 32.6372 19.832C32.1985 20.028 31.6805 20.126 31.0832 20.126ZM37.5237 13.588V17.858C37.5237 18.1473 37.5891 18.3573 37.7197 18.488C37.8597 18.6093 38.0931 18.67 38.4197 18.67H39.3997V20H38.1397C37.4211 20 36.8704 19.832 36.4877 19.496C36.1051 19.16 35.9137 18.614 35.9137 17.858V13.588H35.0037V12.286H35.9137V10.368H37.5237V12.286H39.3997V13.588H37.5237Z" fill="white"/>
<defs>
<linearGradient id="paint0_linear_90_1116" x1="50" y1="32" x2="-0.794342" y2="30.6851" gradientUnits="userSpaceOnUse">
<stop stop-color="#888BF4"/>
<stop offset="1" stop-color="#5151C6"/>
</linearGradient>
</defs>
</svg>
