<svg width="18" height="17" viewBox="0 0 18 17" fill="none" xmlns="http://www.w3.org/2000/svg">
<path fill-rule="evenodd" clip-rule="evenodd" d="M8.67661 0.166504C4.25302 0.166504 0.666992 3.67333 0.666992 7.99922C0.666992 12.3251 4.25302 15.8319 8.67661 15.8319C10.5686 15.8319 12.3073 15.1905 13.6778 14.1178L16.2812 16.657L16.3505 16.7154C16.5922 16.8903 16.9348 16.8704 17.1536 16.6559C17.3941 16.4201 17.3936 16.0381 17.1524 15.8028L14.5796 13.2934C15.8878 11.8993 16.6862 10.0405 16.6862 7.99922C16.6862 3.67333 13.1002 0.166504 8.67661 0.166504ZM8.6766 1.37295C12.4188 1.37295 15.4525 4.33963 15.4525 7.99922C15.4525 11.6588 12.4188 14.6255 8.6766 14.6255C4.93437 14.6255 1.90068 11.6588 1.90068 7.99922C1.90068 4.33963 4.93437 1.37295 8.6766 1.37295Z" fill="url(#paint0_linear_65_2213)"/>
<defs>
<linearGradient id="paint0_linear_65_2213" x1="17.3337" y1="16.8332" x2="0.395514" y2="16.5525" gradientUnits="userSpaceOnUse">
<stop stop-color="#888BF4"/>
<stop offset="1" stop-color="#5151C6"/>
</linearGradient>
</defs>
</svg>
